<svg width="235" height="74" viewBox="0 0 235 74" fill="none" xmlns="http://www.w3.org/2000/svg">
<g clip-path="url(#clip0_129_662)">
<path d="M31.769 41.915C32.4968 44.7435 33.429 47.5155 34.558 50.209C36.416 54.615 39.5791 60.525 44.2691 64.293C39.8824 66.9984 35.7041 70.0278 31.769 73.356C27.8338 70.028 23.6555 66.9986 19.269 64.293C23.959 60.524 27.122 54.615 28.98 50.209C30.1094 47.5134 31.0418 44.7394 31.7701 41.909" fill="white"/>
<path d="M31.7691 0C35.704 3.32811 39.8823 6.35724 44.2691 9.06201C39.5791 12.83 36.4151 18.74 34.5561 23.146C33.4273 25.8393 32.4952 28.6109 31.7671 31.439C31.0393 28.6109 30.1076 25.8394 28.9791 23.146C27.1211 18.74 23.9581 12.831 19.2671 9.061C23.6537 6.35598 27.832 3.32687 31.7671 -0.00100708" fill="white"/>
<path d="M36.364 39.318C39.1572 40.0929 42.0026 40.6657 44.878 41.032C46.9408 41.2937 49.0177 41.4272 51.097 41.432C54.7866 41.5127 58.4594 40.912 61.931 39.66C62.081 44.8117 62.6159 49.945 63.531 55.017C58.6806 56.7627 53.9674 58.8685 49.431 61.317C48.345 54.517 43.388 46.202 36.369 39.317" fill="white"/>
<path d="M14.1041 12.045C15.1901 18.845 20.1471 27.161 27.1651 34.045C24.3722 33.2703 21.5272 32.6975 18.6521 32.331C16.5897 32.0694 14.513 31.9358 12.4341 31.931C8.74375 31.8506 5.07028 32.4517 1.59805 33.704C1.44777 28.5523 0.91294 23.4191 -0.00195312 18.347C4.84854 16.6015 9.56169 14.4956 14.0981 12.047" fill="white"/>
<path d="M27.1971 39.343C25.1289 41.3751 23.2095 43.5534 21.4541 45.861C18.5681 49.673 15.0321 55.367 14.1121 61.313C9.5753 58.867 4.8622 56.7631 0.012085 55.019C0.927316 49.9457 1.46214 44.811 1.61209 39.658C5.1354 40.9168 8.85959 41.5191 12.6001 41.435C17.538 41.3874 22.4476 40.6835 27.2001 39.342" fill="white"/>
<path d="M49.4411 12.047C53.9778 14.4935 58.6909 16.5978 63.5411 18.342C62.6254 23.4153 62.0906 28.5499 61.9411 33.703C58.4166 32.4434 54.691 31.8407 50.9491 31.925C46.0112 31.9726 41.1015 32.6765 36.3491 34.018C38.4173 31.9859 40.3366 29.8076 42.0921 27.5C44.9791 23.688 48.5151 17.993 49.4341 12.047" fill="white"/>
<path d="M93.395 35.469C92.423 37.347 89.93 39.096 85.462 39.096C81.9 39.096 79.407 38.157 78.079 36.279C77.205 35.079 76.979 34.498 76.979 31.487V16.138H82.807V30.871C82.807 32.943 83.455 34.336 85.495 34.336C87.567 34.336 88.15 33.17 88.15 30.968V16.138H93.95V31.745C94.0757 33.0131 93.8851 34.2926 93.395 35.469Z" fill="white"/>
<path d="M108.905 38.707L104.922 30.871C104.247 29.4968 103.663 28.0798 103.174 26.629C103.408 28.5301 103.516 30.4446 103.498 32.36V38.707H97.998V16.138H103.566L107.678 23.877C108.404 25.2672 109.031 26.7064 109.556 28.184C109.394 26.857 109.362 24.622 109.362 23.133V16.139H114.862V38.708L108.905 38.707Z" fill="white"/>
<path d="M119.073 38.707V16.138H124.999V38.707H119.073Z" fill="white"/>
<path d="M138.21 39.095C136.827 39.147 135.449 38.8956 134.174 38.3585C132.899 37.8214 131.756 37.0116 130.827 35.986C129.003 33.6823 128.082 30.7923 128.237 27.858C128.138 25.4312 128.673 23.0204 129.791 20.864C131.701 17.335 134.972 15.748 138.922 15.748C141.222 15.748 143.649 16.396 144.686 17.399L142.225 21.673C141.271 20.9038 140.084 20.4808 138.858 20.473C138.4 20.4425 137.94 20.5042 137.507 20.6543C137.073 20.8044 136.673 21.0399 136.332 21.347C135.232 22.48 134.875 23.647 134.875 26.301C134.875 30.025 135.037 31.801 135.975 32.907C136.316 33.347 136.753 33.7038 137.252 33.9506C137.752 34.1974 138.3 34.3278 138.857 34.332C139.572 34.3574 140.284 34.2386 140.952 33.9826C141.619 33.7266 142.229 33.3387 142.743 32.842L145.236 36.793C143.812 38.124 141.513 39.095 138.21 39.095Z" fill="white"/>
<path d="M147.18 38.707V16.138H160.294L159.873 20.898H152.973V24.686H158.607V29.286H152.973V33.886H160.712V38.711L147.18 38.707Z" fill="white"/>
<path d="M171.236 30.677H169.423V38.707H163.623V16.138H170.973C176.704 16.138 180.073 18.016 180.073 23.164C180.078 26.5 178.621 30.677 171.236 30.677ZM171.43 20.898H169.422V26.079H171.106C172.919 26.079 173.761 25.593 173.761 23.133C173.764 21.254 172.825 20.898 171.436 20.898H171.43Z" fill="white"/>
<path d="M195.103 38.707H182.669V16.138H188.53V33.913H196.204L195.103 38.707Z" fill="white"/>
<path d="M209.966 38.707L208.8 34.368H203.457L202.226 38.707H196.138L203.391 16.138H209.414L216.246 38.707H209.966ZM206.666 25.787C206.437 24.7865 206.296 23.768 206.245 22.743C206.114 23.9099 205.909 25.0673 205.63 26.208L204.724 29.899H207.638L206.666 25.787Z" fill="white"/>
<path d="M226.966 39.095C225.583 39.147 224.205 38.8957 222.93 38.3586C221.655 37.8215 220.512 37.0117 219.583 35.986C217.759 33.6823 216.838 30.7923 216.993 27.858C216.894 25.4312 217.429 23.0204 218.547 20.864C220.457 17.335 223.728 15.748 227.678 15.748C229.978 15.748 232.406 16.396 233.442 17.399L230.981 21.673C230.026 20.9036 228.839 20.4806 227.613 20.473C227.155 20.4426 226.695 20.5043 226.262 20.6544C225.828 20.8045 225.428 21.04 225.087 21.347C223.987 22.48 223.63 23.647 223.63 26.301C223.63 30.025 223.792 31.801 224.73 32.907C225.071 33.347 225.508 33.7038 226.007 33.9506C226.506 34.1974 227.055 34.3278 227.612 34.332C228.327 34.3574 229.039 34.2386 229.707 33.9826C230.374 33.7266 230.984 33.3387 231.498 32.842L233.991 36.793C232.568 38.124 230.269 39.095 226.966 39.095Z" fill="white"/>
<path d="M81.714 59.647C81.0871 59.6705 80.4627 59.5566 79.8845 59.3132C79.3063 59.0698 78.7884 58.7028 78.367 58.238C77.5403 57.1939 77.1229 55.884 77.193 54.554C77.1465 53.4541 77.3878 52.3611 77.893 51.383C78.2901 50.6419 78.8908 50.0298 79.6244 49.6189C80.3579 49.208 81.1937 49.0155 82.033 49.064C82.963 49.0171 83.8821 49.2806 84.646 49.813L83.53 51.751C83.097 51.4027 82.5588 51.2113 82.003 51.208C81.7951 51.1947 81.5867 51.2233 81.39 51.2921C81.1933 51.3608 81.0124 51.4682 80.858 51.608C80.5905 51.9114 80.3927 52.2697 80.2785 52.6577C80.1643 53.0457 80.1365 53.4541 80.197 53.854C80.197 55.542 80.27 56.354 80.697 56.848C80.8517 57.0474 81.0496 57.2092 81.2758 57.321C81.502 57.4329 81.7507 57.4921 82.003 57.494C82.3269 57.5056 82.6497 57.4517 82.9522 57.3358C83.2548 57.2198 83.5309 57.0441 83.764 56.819L84.894 58.61C84.004 59.3467 82.8672 59.7174 81.714 59.647Z" fill="white"/>
<path d="M85.7791 59.471V49.24H91.7241L91.5331 51.398H88.4061V53.115H90.9601V55.2H88.4061V57.284H91.9141V59.471H85.7791Z" fill="white"/>
<path d="M98.1821 59.471L96.3771 55.919C96.0709 55.2961 95.806 54.6536 95.5841 53.996C95.6902 54.8584 95.7393 55.727 95.7311 56.596V59.473H93.2311V49.24H95.7561L97.6201 52.748C97.949 53.378 98.2333 54.0303 98.4711 54.7C98.3981 54.1 98.3831 53.085 98.3831 52.41V49.239H100.883V59.47L98.1821 59.471Z" fill="white"/>
<path d="M109.469 51.413H107.091V59.471H104.434V51.413H102.056V49.24H109.777L109.469 51.413Z" fill="white"/>
<path d="M115.413 59.471L114.341 56.609C113.941 55.552 113.71 55.42 113.141 55.42V59.471H110.513V49.24H114.036C117.045 49.24 118.014 50.458 118.014 52.161C118.098 52.8205 117.923 53.4868 117.526 54.0202C117.129 54.5537 116.542 54.9131 115.886 55.023C116.352 55.2507 116.718 55.6424 116.913 56.123C117.251 56.813 118.113 58.706 118.454 59.47L115.413 59.471ZM113.872 51.398H113.138V53.482H113.887C114.787 53.482 115.087 53.056 115.087 52.366C115.09 51.633 114.699 51.398 113.872 51.398Z" fill="white"/>
<path d="M123.72 59.647C120.755 59.647 119.111 57.68 119.111 54.612C119.111 50.972 121.111 49.063 123.811 49.063C127.29 49.063 128.303 51.72 128.303 53.963C128.3 56.903 127.375 59.647 123.72 59.647ZM123.735 51.119C122.546 51.119 122.047 52.367 122.047 54.319C122.047 56.932 122.678 57.578 123.765 57.578C124.88 57.578 125.365 56.917 125.365 54.29C125.364 51.736 124.865 51.119 123.735 51.119Z" fill="white"/>
<path d="M140.437 58.003C139.997 58.854 138.866 59.647 136.837 59.647C135.222 59.647 134.092 59.221 133.49 58.37C133.09 57.827 132.99 57.563 132.99 56.198V49.24H135.632V55.919C135.632 56.858 135.925 57.49 136.85 57.49C137.775 57.49 138.05 56.962 138.05 55.964V49.241H140.678V56.316C140.738 56.8896 140.655 57.4692 140.437 58.003Z" fill="white"/>
<path d="M147.468 59.471L145.663 55.919C145.357 55.2961 145.092 54.6537 144.87 53.996C144.976 54.8584 145.025 55.727 145.017 56.596V59.473H142.517V49.24H145.042L146.906 52.748C147.235 53.378 147.519 54.0303 147.757 54.7C147.684 54.1 147.669 53.085 147.669 52.41V49.239H150.169V59.47L147.468 59.471Z" fill="white"/>
<path d="M152.075 59.471V49.24H154.761V59.471H152.075Z" fill="white"/>
<path d="M161.337 59.471H158.974L155.495 49.24H158.387L159.679 53.453C159.887 54.0812 160.049 54.7239 160.163 55.376H160.178C160.307 54.6963 160.489 54.0276 160.721 53.376L162.174 49.237H164.948L161.337 59.471Z" fill="white"/>
<path d="M165.681 59.471V49.24H171.626L171.435 51.398H168.308V53.115H170.862V55.2H168.308V57.284H171.816V59.471H165.681Z" fill="white"/>
<path d="M178.043 59.471L176.972 56.609C176.572 55.552 176.341 55.42 175.772 55.42V59.471H173.144V49.24H176.667C179.676 49.24 180.645 50.458 180.645 52.161C180.729 52.8205 180.554 53.4868 180.157 54.0202C179.76 54.5537 179.173 54.9131 178.517 55.023C178.983 55.2508 179.349 55.6424 179.544 56.123C179.882 56.813 180.744 58.706 181.085 59.47L178.043 59.471ZM176.502 51.398H175.768V53.482H176.517C177.417 53.482 177.717 53.056 177.717 52.366C177.717 51.633 177.32 51.398 176.498 51.398H176.502Z" fill="white"/>
<path d="M185.433 59.647C184.118 59.6606 182.821 59.3425 181.661 58.722L182.586 56.667C183.462 57.1748 184.451 57.4572 185.463 57.489C186.49 57.489 186.901 57.107 186.901 56.55C186.901 56.095 186.578 55.889 185.874 55.713L184.674 55.405C183.96 55.3166 183.307 54.9621 182.843 54.4124C182.38 53.8627 182.141 53.1582 182.174 52.44C182.174 50.414 183.847 49.064 186.137 49.064C187.427 49.0296 188.699 49.3775 189.792 50.064L188.53 51.928C187.843 51.4839 187.048 51.2354 186.23 51.209C185.555 51.209 185.188 51.532 185.188 51.943C185.188 52.28 185.423 52.618 186.188 52.809L187.23 53.073C188.33 53.352 189.916 53.851 189.916 55.906C189.914 58.355 188.094 59.647 185.433 59.647Z" fill="white"/>
<path d="M191.381 59.471V49.24H194.067V59.471H191.381Z" fill="white"/>
<path d="M202.654 51.413H200.276V59.471H197.619V51.413H195.246V49.24H202.967L202.654 51.413Z" fill="white"/>
<path d="M208.979 59.471L208.451 57.504H206.032L205.474 59.471H202.714L206.002 49.24H208.732L211.832 59.471H208.979ZM206.014 49.049L205.207 47.757L208.407 45.981L209.407 47.64L206.014 49.049ZM207.482 53.614C207.378 53.1604 207.314 52.6987 207.291 52.234C207.232 52.7631 207.139 53.2878 207.012 53.805L206.601 55.478H207.922L207.482 53.614Z" fill="white"/>
<path d="M217.507 59.471L216.436 56.609C216.036 55.552 215.805 55.42 215.236 55.42V59.471H212.609V49.24H216.132C219.141 49.24 220.11 50.458 220.11 52.161C220.194 52.8205 220.019 53.4868 219.622 54.0202C219.225 54.5537 218.638 54.9131 217.982 55.023C218.448 55.2507 218.814 55.6424 219.009 56.123C219.347 56.813 220.209 58.706 220.55 59.47L217.507 59.471ZM215.966 51.398H215.232V53.482H215.981C216.881 53.482 217.181 53.056 217.181 52.366C217.184 51.633 216.789 51.398 215.966 51.398Z" fill="white"/>
<path d="M221.645 59.471V49.24H224.331V59.471H221.645Z" fill="white"/>
<path d="M230.408 59.647C227.443 59.647 225.799 57.68 225.799 54.612C225.799 50.972 227.799 49.063 230.499 49.063C233.978 49.063 234.991 51.72 234.991 53.963C234.988 56.903 234.063 59.647 230.408 59.647ZM230.423 51.119C229.234 51.119 228.735 52.367 228.735 54.319C228.735 56.932 229.366 57.578 230.452 57.578C231.567 57.578 232.052 56.917 232.052 54.29C232.052 51.736 231.553 51.119 230.425 51.119H230.423Z" fill="white"/>
</g>
<defs>
<clipPath id="clip0_129_662">
<rect width="234.987" height="73.357" fill="white"/>
</clipPath>
</defs>
</svg>
