<svg width="69" height="33" viewBox="0 0 69 33" fill="none" xmlns="http://www.w3.org/2000/svg">
<path d="M12.2695 21.2422C12.2695 22.2578 12.0234 23.1406 11.5312 23.8906C11.0391 24.6406 10.3203 25.2188 9.375 25.625C8.4375 26.0312 7.29688 26.2344 5.95312 26.2344C5.35938 26.2344 4.77734 26.1953 4.20703 26.1172C3.64453 26.0391 3.10156 25.9258 2.57812 25.7773C2.0625 25.6211 1.57031 25.4297 1.10156 25.2031V21.8281C1.91406 22.1875 2.75781 22.5117 3.63281 22.8008C4.50781 23.0898 5.375 23.2344 6.23438 23.2344C6.82812 23.2344 7.30469 23.1562 7.66406 23C8.03125 22.8438 8.29688 22.6289 8.46094 22.3555C8.625 22.082 8.70703 21.7695 8.70703 21.418C8.70703 20.9883 8.5625 20.6211 8.27344 20.3164C7.98438 20.0117 7.58594 19.7266 7.07812 19.4609C6.57812 19.1953 6.01172 18.9102 5.37891 18.6055C4.98047 18.418 4.54688 18.1914 4.07812 17.9258C3.60938 17.6523 3.16406 17.3203 2.74219 16.9297C2.32031 16.5391 1.97266 16.0664 1.69922 15.5117C1.43359 14.9492 1.30078 14.2773 1.30078 13.4961C1.30078 12.4727 1.53516 11.5977 2.00391 10.8711C2.47266 10.1445 3.14062 9.58984 4.00781 9.20703C4.88281 8.81641 5.91406 8.62109 7.10156 8.62109C7.99219 8.62109 8.83984 8.72656 9.64453 8.9375C10.457 9.14062 11.3047 9.4375 12.1875 9.82812L11.0156 12.6523C10.2266 12.332 9.51953 12.0859 8.89453 11.9141C8.26953 11.7344 7.63281 11.6445 6.98438 11.6445C6.53125 11.6445 6.14453 11.7188 5.82422 11.8672C5.50391 12.0078 5.26172 12.2109 5.09766 12.4766C4.93359 12.7344 4.85156 13.0352 4.85156 13.3789C4.85156 13.7852 4.96875 14.1289 5.20312 14.4102C5.44531 14.6836 5.80469 14.9492 6.28125 15.207C6.76562 15.4648 7.36719 15.7656 8.08594 16.1094C8.96094 16.5234 9.70703 16.957 10.3242 17.4102C10.9492 17.8555 11.4297 18.3828 11.7656 18.9922C12.1016 19.5938 12.2695 20.3438 12.2695 21.2422ZM27 19.4258C27 20.5195 26.8516 21.4883 26.5547 22.332C26.2656 23.1758 25.8398 23.8906 25.2773 24.4766C24.7227 25.0547 24.0508 25.4922 23.2617 25.7891C22.4805 26.0859 21.5977 26.2344 20.6133 26.2344C19.6914 26.2344 18.8438 26.0859 18.0703 25.7891C17.3047 25.4922 16.6367 25.0547 16.0664 24.4766C15.5039 23.8906 15.0664 23.1758 14.7539 22.332C14.4492 21.4883 14.2969 20.5195 14.2969 19.4258C14.2969 17.9727 14.5547 16.7422 15.0703 15.7344C15.5859 14.7266 16.3203 13.9609 17.2734 13.4375C18.2266 12.9141 19.3633 12.6523 20.6836 12.6523C21.9102 12.6523 22.9961 12.9141 23.9414 13.4375C24.8945 13.9609 25.6406 14.7266 26.1797 15.7344C26.7266 16.7422 27 17.9727 27 19.4258ZM17.9414 19.4258C17.9414 20.2852 18.0352 21.0078 18.2227 21.5938C18.4102 22.1797 18.7031 22.6211 19.1016 22.918C19.5 23.2148 20.0195 23.3633 20.6602 23.3633C21.293 23.3633 21.8047 23.2148 22.1953 22.918C22.5938 22.6211 22.8828 22.1797 23.0625 21.5938C23.25 21.0078 23.3438 20.2852 23.3438 19.4258C23.3438 18.5586 23.25 17.8398 23.0625 17.2695C22.8828 16.6914 22.5938 16.2578 22.1953 15.9688C21.7969 15.6797 21.2773 15.5352 20.6367 15.5352C19.6914 15.5352 19.0039 15.8594 18.5742 16.5078C18.1523 17.1562 17.9414 18.1289 17.9414 19.4258ZM33.5273 7.76562V12.0078C33.5273 12.5 33.5117 12.9883 33.4805 13.4727C33.457 13.957 33.4258 14.332 33.3867 14.5977H33.5273C33.8711 14.0586 34.3398 13.6016 34.9336 13.2266C35.5273 12.8438 36.2969 12.6523 37.2422 12.6523C38.7109 12.6523 39.9023 13.2266 40.8164 14.375C41.7305 15.5234 42.1875 17.207 42.1875 19.4258C42.1875 20.918 41.9766 22.1719 41.5547 23.1875C41.1328 24.1953 40.543 24.957 39.7852 25.4727C39.0273 25.9805 38.1484 26.2344 37.1484 26.2344C36.1875 26.2344 35.4297 26.0625 34.875 25.7188C34.3203 25.375 33.8711 24.9883 33.5273 24.5586H33.2812L32.6836 26H29.9531V7.76562H33.5273ZM36.0938 15.5117C35.4688 15.5117 34.9727 15.6406 34.6055 15.8984C34.2383 16.1562 33.9688 16.543 33.7969 17.0586C33.6328 17.5742 33.543 18.2266 33.5273 19.0156V19.4023C33.5273 20.6758 33.7148 21.6523 34.0898 22.332C34.4648 23.0039 35.1484 23.3398 36.1406 23.3398C36.875 23.3398 37.457 23 37.8867 22.3203C38.3242 21.6406 38.543 20.6602 38.543 19.3789C38.543 18.0977 38.3242 17.1328 37.8867 16.4844C37.4492 15.8359 36.8516 15.5117 36.0938 15.5117ZM52.4531 12.6523C52.6328 12.6523 52.8398 12.6641 53.0742 12.6875C53.3164 12.7031 53.5117 12.7266 53.6602 12.7578L53.3906 16.1094C53.2734 16.0703 53.1055 16.043 52.8867 16.0273C52.6758 16.0039 52.4922 15.9922 52.3359 15.9922C51.875 15.9922 51.4258 16.0508 50.9883 16.168C50.5586 16.2852 50.1719 16.4766 49.8281 16.7422C49.4844 17 49.2109 17.3438 49.0078 17.7734C48.8125 18.1953 48.7148 18.7148 48.7148 19.332V26H45.1406V12.8984H47.8477L48.375 15.1016H48.5508C48.8086 14.6562 49.1289 14.25 49.5117 13.8828C49.9023 13.5078 50.3438 13.2109 50.8359 12.9922C51.3359 12.7656 51.875 12.6523 52.4531 12.6523ZM61.4414 12.6523C62.6523 12.6523 63.6953 12.8867 64.5703 13.3555C65.4453 13.8164 66.1211 14.4883 66.5977 15.3711C67.0742 16.2539 67.3125 17.332 67.3125 18.6055V20.3398H58.8633C58.9023 21.3477 59.2031 22.1406 59.7656 22.7188C60.3359 23.2891 61.125 23.5742 62.1328 23.5742C62.9688 23.5742 63.7344 23.4883 64.4297 23.3164C65.125 23.1445 65.8398 22.8867 66.5742 22.543V25.3086C65.9258 25.6289 65.2461 25.8633 64.5352 26.0117C63.832 26.1602 62.9766 26.2344 61.9688 26.2344C60.6562 26.2344 59.4922 25.9922 58.4766 25.5078C57.4688 25.0234 56.6758 24.2852 56.0977 23.293C55.5273 22.3008 55.2422 21.0508 55.2422 19.543C55.2422 18.0117 55.5 16.7383 56.0156 15.7227C56.5391 14.6992 57.2656 13.9336 58.1953 13.4258C59.125 12.9102 60.207 12.6523 61.4414 12.6523ZM61.4648 15.1953C60.7695 15.1953 60.1914 15.418 59.7305 15.8633C59.2773 16.3086 59.0156 17.0078 58.9453 17.9609H63.9609C63.9531 17.4297 63.8555 16.957 63.668 16.543C63.4883 16.1289 63.2148 15.8008 62.8477 15.5586C62.4883 15.3164 62.0273 15.1953 61.4648 15.1953Z" fill="#4B247B"/>
</svg>
