<svg width="254" height="86" viewBox="0 0 254 86" fill="none" xmlns="http://www.w3.org/2000/svg">
<g filter="url(#filter0_d_835_4754)">
<rect x="4" width="246" height="78" rx="5" fill="white" shape-rendering="crispEdges"/>
<rect x="5" y="1" width="243" height="75" fill="#391863"/>
<path d="M59.4336 33.6445C58.7383 33.6445 58.1211 33.7812 57.582 34.0547C57.0508 34.3203 56.6016 34.707 56.2344 35.2148C55.875 35.7227 55.6016 36.3359 55.4141 37.0547C55.2266 37.7734 55.1328 38.582 55.1328 39.4805C55.1328 40.6914 55.2812 41.7266 55.5781 42.5859C55.8828 43.4375 56.3516 44.0898 56.9844 44.543C57.6172 44.9883 58.4336 45.2109 59.4336 45.2109C60.1289 45.2109 60.8242 45.1328 61.5195 44.9766C62.2227 44.8203 62.9844 44.5977 63.8047 44.3086V47.3555C63.0469 47.668 62.3008 47.8906 61.5664 48.0234C60.832 48.1641 60.0078 48.2344 59.0938 48.2344C57.3281 48.2344 55.875 47.8711 54.7344 47.1445C53.6016 46.4102 52.7617 45.3867 52.2148 44.0742C51.668 42.7539 51.3945 41.2148 51.3945 39.457C51.3945 38.1602 51.5703 36.9727 51.9219 35.8945C52.2734 34.8164 52.7891 33.8828 53.4688 33.0938C54.1484 32.3047 54.9883 31.6953 55.9883 31.2656C56.9883 30.8359 58.1367 30.6211 59.4336 30.6211C60.2852 30.6211 61.1367 30.7305 61.9883 30.9492C62.8477 31.1602 63.668 31.4531 64.4492 31.8281L63.2773 34.7812C62.6367 34.4766 61.9922 34.2109 61.3438 33.9844C60.6953 33.7578 60.0586 33.6445 59.4336 33.6445ZM72.5469 34.6289C74.3047 34.6289 75.6523 35.0117 76.5898 35.7773C77.5273 36.543 77.9961 37.707 77.9961 39.2695V48H75.5L74.8086 46.2188H74.7148C74.3398 46.6875 73.957 47.0703 73.5664 47.3672C73.1758 47.6641 72.7266 47.8828 72.2188 48.0234C71.7109 48.1641 71.0938 48.2344 70.3672 48.2344C69.5938 48.2344 68.8984 48.0859 68.2812 47.7891C67.6719 47.4922 67.1914 47.0391 66.8398 46.4297C66.4883 45.8125 66.3125 45.0312 66.3125 44.0859C66.3125 42.6953 66.8008 41.6719 67.7773 41.0156C68.7539 40.3516 70.2188 39.9844 72.1719 39.9141L74.4453 39.8438V39.2695C74.4453 38.582 74.2656 38.0781 73.9062 37.7578C73.5469 37.4375 73.0469 37.2773 72.4062 37.2773C71.7734 37.2773 71.1523 37.3672 70.543 37.5469C69.9336 37.7266 69.3242 37.9531 68.7148 38.2266L67.5312 35.8125C68.2266 35.4453 69.0039 35.1562 69.8633 34.9453C70.7305 34.7344 71.625 34.6289 72.5469 34.6289ZM74.4453 41.9297L73.0625 41.9766C71.9062 42.0078 71.1016 42.2148 70.6484 42.5977C70.2031 42.9805 69.9805 43.4844 69.9805 44.1094C69.9805 44.6562 70.1406 45.0469 70.4609 45.2812C70.7812 45.5078 71.1992 45.6211 71.7148 45.6211C72.4805 45.6211 73.125 45.3945 73.6484 44.9414C74.1797 44.4883 74.4453 43.8438 74.4453 43.0078V41.9297ZM85.8359 48.2344C84.375 48.2344 83.1836 47.6641 82.2617 46.5234C81.3477 45.375 80.8906 43.6914 80.8906 41.4727C80.8906 39.2305 81.3555 37.5352 82.2852 36.3867C83.2148 35.2305 84.4297 34.6523 85.9297 34.6523C86.5547 34.6523 87.1055 34.7383 87.582 34.9102C88.0586 35.082 88.4688 35.3125 88.8125 35.6016C89.1641 35.8906 89.4609 36.2148 89.7031 36.5742H89.8203C89.7734 36.3242 89.7148 35.957 89.6445 35.4727C89.582 34.9805 89.5508 34.4766 89.5508 33.9609V29.7656H93.1367V48H90.3945L89.7031 46.3008H89.5508C89.3242 46.6602 89.0391 46.9883 88.6953 47.2852C88.3594 47.5742 87.957 47.8047 87.4883 47.9766C87.0195 48.1484 86.4688 48.2344 85.8359 48.2344ZM87.0898 45.3867C88.0664 45.3867 88.7539 45.0977 89.1523 44.5195C89.5586 43.9336 89.7734 43.0547 89.7969 41.8828V41.4961C89.7969 40.2227 89.6016 39.25 89.2109 38.5781C88.8203 37.8984 88.0938 37.5586 87.0312 37.5586C86.2422 37.5586 85.625 37.8984 85.1797 38.5781C84.7344 39.2578 84.5117 40.2383 84.5117 41.5195C84.5117 42.8008 84.7344 43.7656 85.1797 44.4141C85.6328 45.0625 86.2695 45.3867 87.0898 45.3867ZM102.242 34.6289C104 34.6289 105.348 35.0117 106.285 35.7773C107.223 36.543 107.691 37.707 107.691 39.2695V48H105.195L104.504 46.2188H104.41C104.035 46.6875 103.652 47.0703 103.262 47.3672C102.871 47.6641 102.422 47.8828 101.914 48.0234C101.406 48.1641 100.789 48.2344 100.062 48.2344C99.2891 48.2344 98.5938 48.0859 97.9766 47.7891C97.3672 47.4922 96.8867 47.0391 96.5352 46.4297C96.1836 45.8125 96.0078 45.0312 96.0078 44.0859C96.0078 42.6953 96.4961 41.6719 97.4727 41.0156C98.4492 40.3516 99.9141 39.9844 101.867 39.9141L104.141 39.8438V39.2695C104.141 38.582 103.961 38.0781 103.602 37.7578C103.242 37.4375 102.742 37.2773 102.102 37.2773C101.469 37.2773 100.848 37.3672 100.238 37.5469C99.6289 37.7266 99.0195 37.9531 98.4102 38.2266L97.2266 35.8125C97.9219 35.4453 98.6992 35.1562 99.5586 34.9453C100.426 34.7344 101.32 34.6289 102.242 34.6289ZM104.141 41.9297L102.758 41.9766C101.602 42.0078 100.797 42.2148 100.344 42.5977C99.8984 42.9805 99.6758 43.4844 99.6758 44.1094C99.6758 44.6562 99.8359 45.0469 100.156 45.2812C100.477 45.5078 100.895 45.6211 101.41 45.6211C102.176 45.6211 102.82 45.3945 103.344 44.9414C103.875 44.4883 104.141 43.8438 104.141 43.0078V41.9297ZM120.523 44.1094C120.523 45 120.312 45.7539 119.891 46.3711C119.477 46.9805 118.855 47.4453 118.027 47.7656C117.199 48.0781 116.168 48.2344 114.934 48.2344C114.02 48.2344 113.234 48.1758 112.578 48.0586C111.93 47.9414 111.273 47.7461 110.609 47.4727V44.5195C111.32 44.8398 112.082 45.1055 112.895 45.3164C113.715 45.5195 114.434 45.6211 115.051 45.6211C115.746 45.6211 116.242 45.5195 116.539 45.3164C116.844 45.1055 116.996 44.832 116.996 44.4961C116.996 44.2773 116.934 44.082 116.809 43.9102C116.691 43.7305 116.434 43.5312 116.035 43.3125C115.637 43.0859 115.012 42.793 114.16 42.4336C113.34 42.0898 112.664 41.7422 112.133 41.3906C111.609 41.0391 111.219 40.625 110.961 40.1484C110.711 39.6641 110.586 39.0508 110.586 38.3086C110.586 37.0977 111.055 36.1875 111.992 35.5781C112.938 34.9609 114.199 34.6523 115.777 34.6523C116.59 34.6523 117.363 34.7344 118.098 34.8984C118.84 35.0625 119.602 35.3242 120.383 35.6836L119.305 38.2617C118.656 37.9805 118.043 37.75 117.465 37.5703C116.895 37.3906 116.312 37.3008 115.719 37.3008C115.195 37.3008 114.801 37.3711 114.535 37.5117C114.27 37.6523 114.137 37.8672 114.137 38.1562C114.137 38.3672 114.203 38.5547 114.336 38.7188C114.477 38.8828 114.742 39.0664 115.133 39.2695C115.531 39.4648 116.113 39.7188 116.879 40.0312C117.621 40.3359 118.266 40.6562 118.812 40.9922C119.359 41.3203 119.781 41.7305 120.078 42.2227C120.375 42.707 120.523 43.3359 120.523 44.1094ZM128.832 45.3867C129.223 45.3867 129.602 45.3477 129.969 45.2695C130.344 45.1914 130.715 45.0938 131.082 44.9766V47.6367C130.699 47.8086 130.223 47.9492 129.652 48.0586C129.09 48.1758 128.473 48.2344 127.801 48.2344C127.02 48.2344 126.316 48.1094 125.691 47.8594C125.074 47.6016 124.586 47.1602 124.227 46.5352C123.875 45.9023 123.699 45.0234 123.699 43.8984V37.582H121.988V36.0703L123.957 34.875L124.988 32.1094H127.273V34.8984H130.941V37.582H127.273V43.8984C127.273 44.3984 127.414 44.7734 127.695 45.0234C127.984 45.2656 128.363 45.3867 128.832 45.3867ZM141.055 34.6523C141.234 34.6523 141.441 34.6641 141.676 34.6875C141.918 34.7031 142.113 34.7266 142.262 34.7578L141.992 38.1094C141.875 38.0703 141.707 38.043 141.488 38.0273C141.277 38.0039 141.094 37.9922 140.938 37.9922C140.477 37.9922 140.027 38.0508 139.59 38.168C139.16 38.2852 138.773 38.4766 138.43 38.7422C138.086 39 137.812 39.3438 137.609 39.7734C137.414 40.1953 137.316 40.7148 137.316 41.332V48H133.742V34.8984H136.449L136.977 37.1016H137.152C137.41 36.6562 137.73 36.25 138.113 35.8828C138.504 35.5078 138.945 35.2109 139.438 34.9922C139.938 34.7656 140.477 34.6523 141.055 34.6523ZM150.008 34.6289C151.766 34.6289 153.113 35.0117 154.051 35.7773C154.988 36.543 155.457 37.707 155.457 39.2695V48H152.961L152.27 46.2188H152.176C151.801 46.6875 151.418 47.0703 151.027 47.3672C150.637 47.6641 150.188 47.8828 149.68 48.0234C149.172 48.1641 148.555 48.2344 147.828 48.2344C147.055 48.2344 146.359 48.0859 145.742 47.7891C145.133 47.4922 144.652 47.0391 144.301 46.4297C143.949 45.8125 143.773 45.0312 143.773 44.0859C143.773 42.6953 144.262 41.6719 145.238 41.0156C146.215 40.3516 147.68 39.9844 149.633 39.9141L151.906 39.8438V39.2695C151.906 38.582 151.727 38.0781 151.367 37.7578C151.008 37.4375 150.508 37.2773 149.867 37.2773C149.234 37.2773 148.613 37.3672 148.004 37.5469C147.395 37.7266 146.785 37.9531 146.176 38.2266L144.992 35.8125C145.688 35.4453 146.465 35.1562 147.324 34.9453C148.191 34.7344 149.086 34.6289 150.008 34.6289ZM151.906 41.9297L150.523 41.9766C149.367 42.0078 148.562 42.2148 148.109 42.5977C147.664 42.9805 147.441 43.4844 147.441 44.1094C147.441 44.6562 147.602 45.0469 147.922 45.2812C148.242 45.5078 148.66 45.6211 149.176 45.6211C149.941 45.6211 150.586 45.3945 151.109 44.9414C151.641 44.4883 151.906 43.8438 151.906 43.0078V41.9297ZM166.461 34.6523C166.641 34.6523 166.848 34.6641 167.082 34.6875C167.324 34.7031 167.52 34.7266 167.668 34.7578L167.398 38.1094C167.281 38.0703 167.113 38.043 166.895 38.0273C166.684 38.0039 166.5 37.9922 166.344 37.9922C165.883 37.9922 165.434 38.0508 164.996 38.168C164.566 38.2852 164.18 38.4766 163.836 38.7422C163.492 39 163.219 39.3438 163.016 39.7734C162.82 40.1953 162.723 40.7148 162.723 41.332V48H159.148V34.8984H161.855L162.383 37.1016H162.559C162.816 36.6562 163.137 36.25 163.52 35.8828C163.91 35.5078 164.352 35.2109 164.844 34.9922C165.344 34.7656 165.883 34.6523 166.461 34.6523ZM168.887 43.0312V40.1016H175.18V43.0312H168.887ZM186.922 44.1094C186.922 45 186.711 45.7539 186.289 46.3711C185.875 46.9805 185.254 47.4453 184.426 47.7656C183.598 48.0781 182.566 48.2344 181.332 48.2344C180.418 48.2344 179.633 48.1758 178.977 48.0586C178.328 47.9414 177.672 47.7461 177.008 47.4727V44.5195C177.719 44.8398 178.48 45.1055 179.293 45.3164C180.113 45.5195 180.832 45.6211 181.449 45.6211C182.145 45.6211 182.641 45.5195 182.938 45.3164C183.242 45.1055 183.395 44.832 183.395 44.4961C183.395 44.2773 183.332 44.082 183.207 43.9102C183.09 43.7305 182.832 43.5312 182.434 43.3125C182.035 43.0859 181.41 42.793 180.559 42.4336C179.738 42.0898 179.062 41.7422 178.531 41.3906C178.008 41.0391 177.617 40.625 177.359 40.1484C177.109 39.6641 176.984 39.0508 176.984 38.3086C176.984 37.0977 177.453 36.1875 178.391 35.5781C179.336 34.9609 180.598 34.6523 182.176 34.6523C182.988 34.6523 183.762 34.7344 184.496 34.8984C185.238 35.0625 186 35.3242 186.781 35.6836L185.703 38.2617C185.055 37.9805 184.441 37.75 183.863 37.5703C183.293 37.3906 182.711 37.3008 182.117 37.3008C181.594 37.3008 181.199 37.3711 180.934 37.5117C180.668 37.6523 180.535 37.8672 180.535 38.1562C180.535 38.3672 180.602 38.5547 180.734 38.7188C180.875 38.8828 181.141 39.0664 181.531 39.2695C181.93 39.4648 182.512 39.7188 183.277 40.0312C184.02 40.3359 184.664 40.6562 185.211 40.9922C185.758 41.3203 186.18 41.7305 186.477 42.2227C186.773 42.707 186.922 43.3359 186.922 44.1094ZM195.113 34.6523C196.324 34.6523 197.367 34.8867 198.242 35.3555C199.117 35.8164 199.793 36.4883 200.27 37.3711C200.746 38.2539 200.984 39.332 200.984 40.6055V42.3398H192.535C192.574 43.3477 192.875 44.1406 193.438 44.7188C194.008 45.2891 194.797 45.5742 195.805 45.5742C196.641 45.5742 197.406 45.4883 198.102 45.3164C198.797 45.1445 199.512 44.8867 200.246 44.543V47.3086C199.598 47.6289 198.918 47.8633 198.207 48.0117C197.504 48.1602 196.648 48.2344 195.641 48.2344C194.328 48.2344 193.164 47.9922 192.148 47.5078C191.141 47.0234 190.348 46.2852 189.77 45.293C189.199 44.3008 188.914 43.0508 188.914 41.543C188.914 40.0117 189.172 38.7383 189.688 37.7227C190.211 36.6992 190.938 35.9336 191.867 35.4258C192.797 34.9102 193.879 34.6523 195.113 34.6523ZM195.137 37.1953C194.441 37.1953 193.863 37.418 193.402 37.8633C192.949 38.3086 192.688 39.0078 192.617 39.9609H197.633C197.625 39.4297 197.527 38.957 197.34 38.543C197.16 38.1289 196.887 37.8008 196.52 37.5586C196.16 37.3164 195.699 37.1953 195.137 37.1953Z" fill="#EFEDE6"/>
<rect x="5" y="1" width="243" height="75" stroke="#EFEDE6" stroke-width="2"/>
<rect x="4.5" y="0.5" width="245" height="77" rx="4.5" stroke="black" shape-rendering="crispEdges"/>
</g>
<defs>
<filter id="filter0_d_835_4754" x="0" y="0" width="254" height="86" filterUnits="userSpaceOnUse" color-interpolation-filters="sRGB">
<feFlood flood-opacity="0" result="BackgroundImageFix"/>
<feColorMatrix in="SourceAlpha" type="matrix" values="0 0 0 0 0 0 0 0 0 0 0 0 0 0 0 0 0 0 127 0" result="hardAlpha"/>
<feOffset dy="4"/>
<feGaussianBlur stdDeviation="2"/>
<feComposite in2="hardAlpha" operator="out"/>
<feColorMatrix type="matrix" values="0 0 0 0 0 0 0 0 0 0 0 0 0 0 0 0 0 0 0.25 0"/>
<feBlend mode="normal" in2="BackgroundImageFix" result="effect1_dropShadow_835_4754"/>
<feBlend mode="normal" in="SourceGraphic" in2="effect1_dropShadow_835_4754" result="shape"/>
</filter>
</defs>
</svg>
