<svg width="168" height="33" viewBox="0 0 168 33" fill="none" xmlns="http://www.w3.org/2000/svg">
<path d="M17.707 17.4102C17.707 18.6836 17.5547 19.8516 17.25 20.9141C16.9531 21.9688 16.4922 22.8828 15.8672 23.6562C15.2422 24.4297 14.4492 25.0352 13.4883 25.4727L17.6133 30.0781H12.9609L9.82031 26.2344C9.76562 26.2344 9.71875 26.2344 9.67969 26.2344C9.64062 26.2344 9.59766 26.2344 9.55078 26.2344C8.15234 26.2344 6.94141 26.0273 5.91797 25.6133C4.89453 25.1914 4.04688 24.5898 3.375 23.8086C2.71094 23.0273 2.21484 22.0938 1.88672 21.0078C1.55859 19.9219 1.39453 18.7148 1.39453 17.3867C1.39453 15.6133 1.68359 14.0703 2.26172 12.7578C2.84766 11.4375 3.74609 10.4141 4.95703 9.6875C6.16797 8.96094 7.70703 8.59766 9.57422 8.59766C11.4336 8.59766 12.9609 8.96094 14.1562 9.6875C15.3594 10.4141 16.25 11.4375 16.8281 12.7578C17.4141 14.0781 17.707 15.6289 17.707 17.4102ZM5.20312 17.4102C5.20312 18.6055 5.35156 19.6367 5.64844 20.5039C5.95312 21.3633 6.42578 22.0273 7.06641 22.4961C7.70703 22.957 8.53516 23.1875 9.55078 23.1875C10.582 23.1875 11.418 22.957 12.0586 22.4961C12.6992 22.0273 13.1641 21.3633 13.4531 20.5039C13.75 19.6367 13.8984 18.6055 13.8984 17.4102C13.8984 15.6133 13.5625 14.1992 12.8906 13.168C12.2188 12.1367 11.1133 11.6211 9.57422 11.6211C8.55078 11.6211 7.71484 11.8555 7.06641 12.3242C6.42578 12.7852 5.95312 13.4492 5.64844 14.3164C5.35156 15.1758 5.20312 16.207 5.20312 17.4102ZM33 12.8984V26H30.2578L29.7773 24.3242H29.5898C29.3086 24.7695 28.957 25.1328 28.5352 25.4141C28.1133 25.6953 27.6484 25.9023 27.1406 26.0352C26.6328 26.168 26.1055 26.2344 25.5586 26.2344C24.6211 26.2344 23.8047 26.0703 23.1094 25.7422C22.4141 25.4062 21.8711 24.8867 21.4805 24.1836C21.0977 23.4805 20.9062 22.5664 20.9062 21.4414V12.8984H24.4805V20.5508C24.4805 21.4883 24.6484 22.1953 24.9844 22.6719C25.3203 23.1484 25.8555 23.3867 26.5898 23.3867C27.3164 23.3867 27.8867 23.2227 28.3008 22.8945C28.7148 22.5586 29.0039 22.0703 29.168 21.4297C29.3398 20.7812 29.4258 19.9922 29.4258 19.0625V12.8984H33ZM42.1523 12.6523C43.3633 12.6523 44.4062 12.8867 45.2812 13.3555C46.1562 13.8164 46.832 14.4883 47.3086 15.3711C47.7852 16.2539 48.0234 17.332 48.0234 18.6055V20.3398H39.5742C39.6133 21.3477 39.9141 22.1406 40.4766 22.7188C41.0469 23.2891 41.8359 23.5742 42.8438 23.5742C43.6797 23.5742 44.4453 23.4883 45.1406 23.3164C45.8359 23.1445 46.5508 22.8867 47.2852 22.543V25.3086C46.6367 25.6289 45.957 25.8633 45.2461 26.0117C44.543 26.1602 43.6875 26.2344 42.6797 26.2344C41.3672 26.2344 40.2031 25.9922 39.1875 25.5078C38.1797 25.0234 37.3867 24.2852 36.8086 23.293C36.2383 22.3008 35.9531 21.0508 35.9531 19.543C35.9531 18.0117 36.2109 16.7383 36.7266 15.7227C37.25 14.6992 37.9766 13.9336 38.9062 13.4258C39.8359 12.9102 40.918 12.6523 42.1523 12.6523ZM42.1758 15.1953C41.4805 15.1953 40.9023 15.418 40.4414 15.8633C39.9883 16.3086 39.7266 17.0078 39.6562 17.9609H44.6719C44.6641 17.4297 44.5664 16.957 44.3789 16.543C44.1992 16.1289 43.9258 15.8008 43.5586 15.5586C43.1992 15.3164 42.7383 15.1953 42.1758 15.1953ZM66.3164 12.6523C67.8008 12.6523 68.9219 13.0352 69.6797 13.8008C70.4453 14.5586 70.8281 15.7773 70.8281 17.457V26H67.2422V18.3477C67.2422 17.4102 67.082 16.7031 66.7617 16.2266C66.4414 15.75 65.9453 15.5117 65.2734 15.5117C64.3281 15.5117 63.6562 15.8516 63.2578 16.5312C62.8594 17.2031 62.6602 18.168 62.6602 19.4258V26H59.0859V18.3477C59.0859 17.7227 59.0156 17.1992 58.875 16.7773C58.7344 16.3555 58.5195 16.0391 58.2305 15.8281C57.9414 15.6172 57.5703 15.5117 57.1172 15.5117C56.4531 15.5117 55.9297 15.6797 55.5469 16.0156C55.1719 16.3438 54.9023 16.832 54.7383 17.4805C54.582 18.1211 54.5039 18.9062 54.5039 19.8359V26H50.9297V12.8984H53.6602L54.1406 14.5742H54.3398C54.6055 14.1211 54.9375 13.7539 55.3359 13.4727C55.7422 13.1914 56.1875 12.9844 56.6719 12.8516C57.1562 12.7188 57.6484 12.6523 58.1484 12.6523C59.1094 12.6523 59.9219 12.8086 60.5859 13.1211C61.2578 13.4336 61.7734 13.918 62.1328 14.5742H62.4492C62.8398 13.9023 63.3906 13.4141 64.1016 13.1094C64.8203 12.8047 65.5586 12.6523 66.3164 12.6523ZM89.8828 22.1094C89.8828 23 89.6719 23.7539 89.25 24.3711C88.8359 24.9805 88.2148 25.4453 87.3867 25.7656C86.5586 26.0781 85.5273 26.2344 84.293 26.2344C83.3789 26.2344 82.5938 26.1758 81.9375 26.0586C81.2891 25.9414 80.6328 25.7461 79.9688 25.4727V22.5195C80.6797 22.8398 81.4414 23.1055 82.2539 23.3164C83.0742 23.5195 83.793 23.6211 84.4102 23.6211C85.1055 23.6211 85.6016 23.5195 85.8984 23.3164C86.2031 23.1055 86.3555 22.832 86.3555 22.4961C86.3555 22.2773 86.293 22.082 86.168 21.9102C86.0508 21.7305 85.793 21.5312 85.3945 21.3125C84.9961 21.0859 84.3711 20.793 83.5195 20.4336C82.6992 20.0898 82.0234 19.7422 81.4922 19.3906C80.9688 19.0391 80.5781 18.625 80.3203 18.1484C80.0703 17.6641 79.9453 17.0508 79.9453 16.3086C79.9453 15.0977 80.4141 14.1875 81.3516 13.5781C82.2969 12.9609 83.5586 12.6523 85.1367 12.6523C85.9492 12.6523 86.7227 12.7344 87.457 12.8984C88.1992 13.0625 88.9609 13.3242 89.7422 13.6836L88.6641 16.2617C88.0156 15.9805 87.4023 15.75 86.8242 15.5703C86.2539 15.3906 85.6719 15.3008 85.0781 15.3008C84.5547 15.3008 84.1602 15.3711 83.8945 15.5117C83.6289 15.6523 83.4961 15.8672 83.4961 16.1562C83.4961 16.3672 83.5625 16.5547 83.6953 16.7188C83.8359 16.8828 84.1016 17.0664 84.4922 17.2695C84.8906 17.4648 85.4727 17.7188 86.2383 18.0312C86.9805 18.3359 87.625 18.6562 88.1719 18.9922C88.7188 19.3203 89.1406 19.7305 89.4375 20.2227C89.7344 20.707 89.8828 21.3359 89.8828 22.1094ZM104.578 19.4258C104.578 20.5195 104.43 21.4883 104.133 22.332C103.844 23.1758 103.418 23.8906 102.855 24.4766C102.301 25.0547 101.629 25.4922 100.84 25.7891C100.059 26.0859 99.1758 26.2344 98.1914 26.2344C97.2695 26.2344 96.4219 26.0859 95.6484 25.7891C94.8828 25.4922 94.2148 25.0547 93.6445 24.4766C93.082 23.8906 92.6445 23.1758 92.332 22.332C92.0273 21.4883 91.875 20.5195 91.875 19.4258C91.875 17.9727 92.1328 16.7422 92.6484 15.7344C93.1641 14.7266 93.8984 13.9609 94.8516 13.4375C95.8047 12.9141 96.9414 12.6523 98.2617 12.6523C99.4883 12.6523 100.574 12.9141 101.52 13.4375C102.473 13.9609 103.219 14.7266 103.758 15.7344C104.305 16.7422 104.578 17.9727 104.578 19.4258ZM95.5195 19.4258C95.5195 20.2852 95.6133 21.0078 95.8008 21.5938C95.9883 22.1797 96.2812 22.6211 96.6797 22.918C97.0781 23.2148 97.5977 23.3633 98.2383 23.3633C98.8711 23.3633 99.3828 23.2148 99.7734 22.918C100.172 22.6211 100.461 22.1797 100.641 21.5938C100.828 21.0078 100.922 20.2852 100.922 19.4258C100.922 18.5586 100.828 17.8398 100.641 17.2695C100.461 16.6914 100.172 16.2578 99.7734 15.9688C99.375 15.6797 98.8555 15.5352 98.2148 15.5352C97.2695 15.5352 96.582 15.8594 96.1523 16.5078C95.7305 17.1562 95.5195 18.1289 95.5195 19.4258ZM122.918 12.6523C124.402 12.6523 125.523 13.0352 126.281 13.8008C127.047 14.5586 127.43 15.7773 127.43 17.457V26H123.844V18.3477C123.844 17.4102 123.684 16.7031 123.363 16.2266C123.043 15.75 122.547 15.5117 121.875 15.5117C120.93 15.5117 120.258 15.8516 119.859 16.5312C119.461 17.2031 119.262 18.168 119.262 19.4258V26H115.688V18.3477C115.688 17.7227 115.617 17.1992 115.477 16.7773C115.336 16.3555 115.121 16.0391 114.832 15.8281C114.543 15.6172 114.172 15.5117 113.719 15.5117C113.055 15.5117 112.531 15.6797 112.148 16.0156C111.773 16.3438 111.504 16.832 111.34 17.4805C111.184 18.1211 111.105 18.9062 111.105 19.8359V26H107.531V12.8984H110.262L110.742 14.5742H110.941C111.207 14.1211 111.539 13.7539 111.938 13.4727C112.344 13.1914 112.789 12.9844 113.273 12.8516C113.758 12.7188 114.25 12.6523 114.75 12.6523C115.711 12.6523 116.523 12.8086 117.188 13.1211C117.859 13.4336 118.375 13.918 118.734 14.5742H119.051C119.441 13.9023 119.992 13.4141 120.703 13.1094C121.422 12.8047 122.16 12.6523 122.918 12.6523ZM143.016 19.4258C143.016 20.5195 142.867 21.4883 142.57 22.332C142.281 23.1758 141.855 23.8906 141.293 24.4766C140.738 25.0547 140.066 25.4922 139.277 25.7891C138.496 26.0859 137.613 26.2344 136.629 26.2344C135.707 26.2344 134.859 26.0859 134.086 25.7891C133.32 25.4922 132.652 25.0547 132.082 24.4766C131.52 23.8906 131.082 23.1758 130.77 22.332C130.465 21.4883 130.312 20.5195 130.312 19.4258C130.312 17.9727 130.57 16.7422 131.086 15.7344C131.602 14.7266 132.336 13.9609 133.289 13.4375C134.242 12.9141 135.379 12.6523 136.699 12.6523C137.926 12.6523 139.012 12.9141 139.957 13.4375C140.91 13.9609 141.656 14.7266 142.195 15.7344C142.742 16.7422 143.016 17.9727 143.016 19.4258ZM133.957 19.4258C133.957 20.2852 134.051 21.0078 134.238 21.5938C134.426 22.1797 134.719 22.6211 135.117 22.918C135.516 23.2148 136.035 23.3633 136.676 23.3633C137.309 23.3633 137.82 23.2148 138.211 22.918C138.609 22.6211 138.898 22.1797 139.078 21.5938C139.266 21.0078 139.359 20.2852 139.359 19.4258C139.359 18.5586 139.266 17.8398 139.078 17.2695C138.898 16.6914 138.609 16.2578 138.211 15.9688C137.812 15.6797 137.293 15.5352 136.652 15.5352C135.707 15.5352 135.02 15.8594 134.59 16.5078C134.168 17.1562 133.957 18.1289 133.957 19.4258ZM155.109 22.1094C155.109 23 154.898 23.7539 154.477 24.3711C154.062 24.9805 153.441 25.4453 152.613 25.7656C151.785 26.0781 150.754 26.2344 149.52 26.2344C148.605 26.2344 147.82 26.1758 147.164 26.0586C146.516 25.9414 145.859 25.7461 145.195 25.4727V22.5195C145.906 22.8398 146.668 23.1055 147.48 23.3164C148.301 23.5195 149.02 23.6211 149.637 23.6211C150.332 23.6211 150.828 23.5195 151.125 23.3164C151.43 23.1055 151.582 22.832 151.582 22.4961C151.582 22.2773 151.52 22.082 151.395 21.9102C151.277 21.7305 151.02 21.5312 150.621 21.3125C150.223 21.0859 149.598 20.793 148.746 20.4336C147.926 20.0898 147.25 19.7422 146.719 19.3906C146.195 19.0391 145.805 18.625 145.547 18.1484C145.297 17.6641 145.172 17.0508 145.172 16.3086C145.172 15.0977 145.641 14.1875 146.578 13.5781C147.523 12.9609 148.785 12.6523 150.363 12.6523C151.176 12.6523 151.949 12.7344 152.684 12.8984C153.426 13.0625 154.188 13.3242 154.969 13.6836L153.891 16.2617C153.242 15.9805 152.629 15.75 152.051 15.5703C151.48 15.3906 150.898 15.3008 150.305 15.3008C149.781 15.3008 149.387 15.3711 149.121 15.5117C148.855 15.6523 148.723 15.8672 148.723 16.1562C148.723 16.3672 148.789 16.5547 148.922 16.7188C149.062 16.8828 149.328 17.0664 149.719 17.2695C150.117 17.4648 150.699 17.7188 151.465 18.0312C152.207 18.3359 152.852 18.6562 153.398 18.9922C153.945 19.3203 154.367 19.7305 154.664 20.2227C154.961 20.707 155.109 21.3359 155.109 22.1094ZM159.258 20.3164V19.4492C159.258 18.918 159.332 18.4492 159.48 18.043C159.629 17.6289 159.867 17.2383 160.195 16.8711C160.523 16.4961 160.957 16.1133 161.496 15.7227C161.98 15.3789 162.367 15.0703 162.656 14.7969C162.953 14.5234 163.168 14.2539 163.301 13.9883C163.441 13.7148 163.512 13.4062 163.512 13.0625C163.512 12.5547 163.324 12.168 162.949 11.9023C162.574 11.6367 162.051 11.5039 161.379 11.5039C160.707 11.5039 160.039 11.6094 159.375 11.8203C158.719 12.0312 158.051 12.3086 157.371 12.6523L156.094 10.0859C156.875 9.64844 157.723 9.29688 158.637 9.03125C159.551 8.75781 160.551 8.62109 161.637 8.62109C163.309 8.62109 164.602 9.02344 165.516 9.82812C166.438 10.625 166.898 11.6406 166.898 12.875C166.898 13.5312 166.793 14.1016 166.582 14.5859C166.379 15.0625 166.066 15.5078 165.645 15.9219C165.23 16.3281 164.711 16.7578 164.086 17.2109C163.617 17.5547 163.258 17.8438 163.008 18.0781C162.758 18.3125 162.586 18.5469 162.492 18.7812C162.406 19.0078 162.363 19.2852 162.363 19.6133V20.3164H159.258ZM158.883 24.3242C158.883 23.5898 159.082 23.0742 159.48 22.7773C159.887 22.4805 160.375 22.332 160.945 22.332C161.5 22.332 161.977 22.4805 162.375 22.7773C162.781 23.0742 162.984 23.5898 162.984 24.3242C162.984 25.0273 162.781 25.5352 162.375 25.8477C161.977 26.1602 161.5 26.3164 160.945 26.3164C160.375 26.3164 159.887 26.1602 159.48 25.8477C159.082 25.5352 158.883 25.0273 158.883 24.3242Z" fill="#4B247B"/>
</svg>
