<svg width="65" height="74" viewBox="0 0 65 74" fill="none" xmlns="http://www.w3.org/2000/svg">
<path d="M32.7695 41.915C33.4973 44.7435 34.4294 47.5154 35.5585 50.209C37.4165 54.615 40.5795 60.525 45.2695 64.293C40.8829 66.9983 36.7046 70.0277 32.7695 73.356C28.8343 70.028 24.656 66.9985 20.2695 64.293C24.9595 60.524 28.1225 54.615 29.9805 50.209C31.1099 47.5134 32.0423 44.7394 32.7705 41.9089" fill="#4B247B"/>
<path d="M32.7696 3.05176e-05C36.7045 3.32814 40.8828 6.35727 45.2696 9.06204C40.5796 12.83 37.4156 18.7401 35.5566 23.1461C34.4278 25.8394 33.4957 28.6109 32.7676 31.439C32.0398 28.611 31.108 25.8394 29.9796 23.1461C28.1216 18.7401 24.9586 12.831 20.2676 9.06104C24.6542 6.35601 28.8325 3.3269 32.7676 -0.000976562" fill="#4B247B"/>
<path d="M37.3633 39.3181C40.1565 40.093 43.0018 40.6659 45.8773 41.0322C47.94 41.2938 50.017 41.4274 52.0963 41.4321C55.7859 41.5129 59.4587 40.9122 62.9303 39.6602C63.0803 44.8119 63.6151 49.9452 64.5303 55.0172C59.6798 56.7628 54.9667 58.8687 50.4303 61.3171C49.3443 54.5171 44.3873 46.2021 37.3683 39.3171" fill="#4B247B"/>
<path d="M15.1041 12.0452C16.1901 18.8452 21.1471 27.1612 28.1651 34.0452C25.3722 33.2704 22.5272 32.6976 19.6521 32.3312C17.5897 32.0695 15.513 31.9359 13.4341 31.9312C9.74375 31.8507 6.07028 32.4518 2.59805 33.7042C2.44777 28.5525 1.91294 23.4192 0.998047 18.3472C5.84854 16.6016 10.5617 14.4957 15.0981 12.0471" fill="#4B247B"/>
<path d="M28.1967 39.343C26.1285 41.3751 24.2092 43.5534 22.4537 45.861C19.5677 49.673 16.0317 55.3671 15.1117 61.313C10.5749 58.867 5.86183 56.7632 1.01172 55.019C1.92695 49.9457 2.46178 44.8111 2.61172 39.658C6.13503 40.9168 9.85922 41.5191 13.5997 41.4351C18.5376 41.3874 23.4473 40.6836 28.1997 39.342" fill="#4B247B"/>
<path d="M50.4416 12.0471C54.9783 14.4937 59.6914 16.5979 64.5416 18.3422C63.6259 23.4154 63.0911 28.5501 62.9416 33.7031C59.4171 32.4435 55.6915 31.8409 51.9496 31.9251C47.0117 31.9728 42.102 32.6766 37.3496 34.0181C39.4178 31.9861 41.3371 29.8078 43.0926 27.5001C45.9796 23.6881 49.5156 17.9931 50.4346 12.0471" fill="#4B247B"/>
</svg>
